<svg width="70.000000" height="43.000000" viewBox="0 0 70 43" fill="none" xmlns="http://www.w3.org/2000/svg" xmlns:xlink="http://www.w3.org/1999/xlink">
	<desc>
			Created with Pixso.
	</desc>
	<defs>
		<clipPath id="clip1326_1003">
			<rect id="users-viewfinder-solid" rx="0.000000" width="69.000000" height="42.000000" transform="translate(0.500000 0.500000)" fill="white" fill-opacity="0"/>
		</clipPath>
	</defs>
	<rect id="users-viewfinder-solid" rx="0.000000" width="69.000000" height="42.000000" transform="translate(0.500000 0.500000)" fill="#FFFFFF" fill-opacity="0"/>
	<g clip-path="url(#clip1326_1003)">
		<path id="Vector" d="M12.05 4.03L19.47 4.03C20.59 4.03 21.5 3.13 21.5 2.01C21.5 0.89 20.59 0 19.47 0L10.69 0C9.2 0 8 1.2 8 2.68L8 11.42C8 12.53 8.9 13.43 10.02 13.43C11.14 13.43 12.05 12.53 12.05 11.42L12.05 4.03ZM22.83 18.81C23.36 18.81 23.89 18.7 24.38 18.5C24.87 18.3 25.32 18 25.69 17.63C26.07 17.25 26.37 16.81 26.57 16.32C26.77 15.83 26.88 15.31 26.88 14.78C26.88 14.25 26.77 13.72 26.57 13.23C26.37 12.74 26.07 12.3 25.69 11.93C25.32 11.55 24.87 11.25 24.38 11.05C23.89 10.85 23.36 10.75 22.83 10.75C22.3 10.75 21.77 10.85 21.28 11.05C20.79 11.25 20.34 11.55 19.96 11.93C19.59 12.3 19.29 12.74 19.09 13.23C18.88 13.72 18.78 14.25 18.78 14.78C18.78 15.31 18.88 15.83 19.09 16.32C19.29 16.81 19.59 17.25 19.96 17.63C20.34 18 20.79 18.3 21.28 18.5C21.77 18.7 22.3 18.81 22.83 18.81ZM20.59 21.5C18.11 21.5 16.09 23.5 16.09 25.97C16.09 27.21 17.1 28.21 18.35 28.21L23.08 28.21C23.76 25.35 25.85 23.03 28.58 22.03C27.95 21.69 27.22 21.5 26.45 21.5L20.6 21.5L20.59 21.5ZM51.64 28.21C52.88 28.21 53.9 27.21 53.9 25.97C53.9 23.49 51.88 21.5 49.4 21.5L43.55 21.5C42.77 21.5 42.05 21.69 41.42 22.03C44.15 23.03 46.24 25.35 46.92 28.21L51.65 28.21L51.64 28.21ZM44.1 28.21C43.37 26.17 41.58 24.64 39.38 24.27C39.05 24.21 38.72 24.18 38.37 24.18L31.62 24.18C31.27 24.18 30.94 24.21 30.61 24.27C28.41 24.64 26.62 26.17 25.89 28.21C25.66 28.84 25.55 29.52 25.55 30.23C25.55 31.35 26.45 32.25 27.57 32.25L42.42 32.25C43.54 32.25 44.44 31.35 44.44 30.23C44.44 29.52 44.33 28.84 44.1 28.21ZM47.15 18.81C47.68 18.81 48.2 18.7 48.69 18.5C49.19 18.3 49.63 18 50.01 17.63C50.39 17.25 50.68 16.81 50.89 16.32C51.09 15.83 51.19 15.31 51.19 14.78C51.19 14.25 51.09 13.72 50.89 13.23C50.68 12.74 50.39 12.3 50.01 11.93C49.63 11.55 49.19 11.25 48.69 11.05C48.2 10.85 47.68 10.75 47.15 10.75C46.61 10.75 46.09 10.85 45.59 11.05C45.1 11.25 44.66 11.55 44.28 11.93C43.91 12.3 43.61 12.74 43.4 13.23C43.2 13.72 43.09 14.25 43.09 14.78C43.09 15.31 43.2 15.83 43.4 16.32C43.61 16.81 43.91 17.25 44.28 17.63C44.66 18 45.1 18.3 45.59 18.5C46.09 18.7 46.61 18.81 47.15 18.81ZM40.4 16.12C40.4 14.69 39.83 13.33 38.81 12.32C37.8 11.31 36.43 10.75 35 10.75C33.56 10.75 32.19 11.31 31.18 12.32C30.16 13.33 29.59 14.69 29.59 16.12C29.59 17.55 30.16 18.91 31.18 19.92C32.19 20.93 33.56 21.5 35 21.5C36.43 21.5 37.8 20.93 38.81 19.92C39.83 18.91 40.4 17.55 40.4 16.12ZM50.52 4.03L57.94 4.03L57.94 11.42C57.94 12.53 58.85 13.43 59.97 13.43C61.09 13.43 62 12.53 62 11.42L62 2.68C62 1.2 60.79 0 59.3 0L50.52 0C49.4 0 48.5 0.89 48.5 2.01C48.5 3.13 49.4 4.03 50.52 4.03ZM12.05 38.96L12.05 31.57C12.05 30.46 11.14 29.56 10.02 29.56C8.9 29.56 8 30.46 8 31.57L8 40.31C8 41.79 9.2 43 10.69 43L19.47 43C20.59 43 21.5 42.1 21.5 40.98C21.5 39.86 20.59 38.96 19.47 38.96L12.05 38.96ZM50.52 38.96C49.4 38.96 48.5 39.86 48.5 40.98C48.5 42.1 49.4 43 50.52 43L59.3 43C60.79 43 62 41.79 62 40.31L62 31.57C62 30.46 61.09 29.56 59.97 29.56C58.85 29.56 57.94 30.46 57.94 31.57L57.94 38.96L50.52 38.96Z" fill="#A7956D" fill-opacity="1.000000" fill-rule="nonzero"/>
	</g>
</svg>
