<svg width="70.000000" height="54.000000" viewBox="0 0 70 54" fill="none" xmlns="http://www.w3.org/2000/svg" xmlns:xlink="http://www.w3.org/1999/xlink">
	<desc>
			Created with Pixso.
	</desc>
	<defs>
		<clipPath id="clip1326_992">
			<rect id="clock-solid" rx="0.000000" width="69.000000" height="53.000000" transform="translate(0.500000 0.500000)" fill="white" fill-opacity="0"/>
		</clipPath>
	</defs>
	<rect id="clock-solid" rx="0.000000" width="69.000000" height="53.000000" transform="translate(0.500000 0.500000)" fill="#FFFFFF" fill-opacity="0"/>
	<g clip-path="url(#clip1326_992)">
		<path id="Vector" d="M35 0C42.16 0 49.02 2.84 54.09 7.9C59.15 12.97 62 19.83 62 27C62 34.16 59.15 41.02 54.09 46.09C49.02 51.15 42.16 54 35 54C27.83 54 20.97 51.15 15.9 46.09C10.84 41.02 8 34.16 8 27C8 19.83 10.84 12.97 15.9 7.9C20.97 2.84 27.83 0 35 0ZM32.46 12.65L32.46 27C32.46 27.84 32.89 28.63 33.59 29.1L43.72 35.85C44.88 36.63 46.45 36.32 47.23 35.15C48.01 33.98 47.69 32.42 46.52 31.64L37.53 25.65L37.53 12.65C37.53 11.25 36.4 10.12 35 10.12C33.59 10.12 32.46 11.25 32.46 12.65Z" fill="#A7956D" fill-opacity="1.000000" fill-rule="nonzero"/>
	</g>
</svg>
