<svg width="70.000000" height="50.625000" viewBox="0 0 70 50.625" fill="none" xmlns="http://www.w3.org/2000/svg" xmlns:xlink="http://www.w3.org/1999/xlink">
	<desc>
			Created with Pixso.
	</desc>
	<defs/>
	<path id="Vector" d="M14.9 5.9C15.56 5.9 16.2 6.17 16.67 6.64C17.14 7.12 17.41 7.76 17.41 8.43C17.41 9.1 17.14 9.75 16.67 10.22C16.2 10.7 15.56 10.96 14.9 10.96C14.23 10.96 13.59 10.7 13.12 10.22C12.65 9.75 12.38 9.1 12.38 8.43C12.38 7.76 12.65 7.12 13.12 6.64C13.59 6.17 14.23 5.9 14.9 5.9ZM18.25 16.16C21.21 14.87 23.27 11.89 23.27 8.43C23.27 3.77 19.52 0 14.9 0C10.27 0 6.52 3.77 6.52 8.43C6.52 11.89 8.58 14.87 11.55 16.16L11.55 21.93L4.84 21.93C2.99 21.93 1.5 23.44 1.5 25.31C1.5 27.17 2.99 28.68 4.84 28.68L31.65 28.68L31.65 34.45C28.68 35.75 26.62 38.72 26.62 42.18C26.62 46.84 30.37 50.62 35 50.62C39.62 50.62 43.37 46.84 43.37 42.18C43.37 38.72 41.31 35.75 38.34 34.45L38.34 28.68L65.15 28.68C67 28.68 68.5 27.17 68.5 25.31C68.5 23.44 67 21.93 65.15 21.93L58.44 21.93L58.44 16.16C61.41 14.87 63.47 11.89 63.47 8.43C63.47 3.77 59.72 0 55.09 0C50.47 0 46.72 3.77 46.72 8.43C46.72 11.89 48.78 14.87 51.75 16.16L51.75 21.93L18.25 21.93L18.25 16.16ZM52.58 8.43C52.58 7.76 52.85 7.12 53.32 6.64C53.79 6.17 54.43 5.9 55.09 5.9C55.76 5.9 56.4 6.17 56.87 6.64C57.34 7.12 57.61 7.76 57.61 8.43C57.61 9.1 57.34 9.75 56.87 10.22C56.4 10.7 55.76 10.96 55.09 10.96C54.43 10.96 53.79 10.7 53.32 10.22C52.85 9.75 52.58 9.1 52.58 8.43ZM35 39.65C35.66 39.65 36.3 39.92 36.77 40.39C37.24 40.87 37.51 41.51 37.51 42.18C37.51 42.85 37.24 43.5 36.77 43.97C36.3 44.45 35.66 44.71 35 44.71C34.33 44.71 33.69 44.45 33.22 43.97C32.75 43.5 32.48 42.85 32.48 42.18C32.48 41.51 32.75 40.87 33.22 40.39C33.69 39.92 34.33 39.65 35 39.65Z" fill="#A7956D" fill-opacity="1.000000" fill-rule="nonzero"/>
</svg>
