<svg width="70.000000" height="54.000000" viewBox="0 0 70 54" fill="none" xmlns="http://www.w3.org/2000/svg" xmlns:xlink="http://www.w3.org/1999/xlink">
	<desc>
			Created with Pixso.
	</desc>
	<defs>
		<clipPath id="clip1326_987">
			<rect id="headset-solid" rx="0.000000" width="69.000000" height="53.000000" transform="translate(0.500000 0.500000)" fill="white" fill-opacity="0"/>
		</clipPath>
	</defs>
	<rect id="headset-solid" rx="0.000000" width="69.000000" height="53.000000" transform="translate(0.500000 0.500000)" fill="#FFFFFF" fill-opacity="0"/>
	<g clip-path="url(#clip1326_987)">
		<path id="Vector" d="M35 5.06C22.88 5.06 13.06 14.88 13.06 27L13.06 31.21C13.06 32.62 11.93 33.75 10.53 33.75C9.12 33.75 8 32.62 8 31.21L8 27C8 12.08 20.08 0 35 0C49.91 0 62 12.08 62 27L62 42.19C62 47.32 57.84 51.47 52.7 51.47L41.07 51.46C40.19 52.97 38.56 54 36.68 54L33.31 54C30.51 54 28.25 51.73 28.25 48.93C28.25 46.14 30.51 43.87 33.31 43.87L36.68 43.87C38.56 43.87 40.19 44.89 41.07 46.4L52.71 46.41C55.04 46.41 56.93 44.52 56.93 42.19L56.93 27C56.93 14.88 47.11 5.06 35 5.06ZM23.18 21.93L24.87 21.93C26.74 21.93 28.25 23.44 28.25 25.31L28.25 37.12C28.25 38.99 26.74 40.5 24.87 40.5L23.18 40.5C19.46 40.5 16.43 37.47 16.43 33.75L16.43 28.68C16.43 24.96 19.46 21.93 23.18 21.93ZM46.81 21.93C50.53 21.93 53.56 24.96 53.56 28.68L53.56 33.75C53.56 37.47 50.53 40.5 46.81 40.5L45.12 40.5C43.25 40.5 41.75 38.99 41.75 37.12L41.75 25.31C41.75 23.44 43.25 21.93 45.12 21.93L46.81 21.93Z" fill="#A7956D" fill-opacity="1.000000" fill-rule="nonzero"/>
	</g>
</svg>
