<svg width="70.000000" height="54.000000" viewBox="0 0 70 54" fill="none" xmlns="http://www.w3.org/2000/svg" xmlns:xlink="http://www.w3.org/1999/xlink">
	<desc>
			Created with Pixso.
	</desc>
	<defs/>
	<path id="Vector" d="M35 0C35.48 0 35.97 0.1 36.42 0.3L56.42 8.78C58.76 9.76 60.5 12.06 60.5 14.84C60.44 25.36 56.11 44.61 37.8 53.36C36.03 54.21 33.96 54.21 32.19 53.36C13.88 44.61 9.55 25.36 9.5 14.84C9.49 12.06 11.23 9.76 13.57 8.78L33.58 0.3C34.02 0.1 34.51 0 35 0ZM35 7.08L35 47.18C49.66 40.08 53.6 24.4 53.69 14.99L35 7.08Z" fill="#A7956D" fill-opacity="1.000000" fill-rule="nonzero"/>
</svg>
