<svg width="112.000000" height="112.000000" viewBox="0 0 112 112" fill="none" xmlns="http://www.w3.org/2000/svg" xmlns:xlink="http://www.w3.org/1999/xlink">
	<desc>
			Created with Pixso.
	</desc>
	<defs>
		<clipPath id="clip1170_1151">
			<rect id="wallet-solid 2" rx="7.500000" width="111.000000" height="111.000000" transform="translate(0.500000 0.500000)" fill="white" fill-opacity="0"/>
		</clipPath>
	</defs>
	<rect id="wallet-solid 2" rx="7.500000" width="111.000000" height="111.000000" transform="translate(0.500000 0.500000)" fill="#5582A0" fill-opacity="0"/>
	<rect id="wallet-solid 2" rx="7.500000" width="111.000000" height="111.000000" transform="translate(0.500000 0.500000)" fill="#A7956D" fill-opacity="0"/>
	<g clip-path="url(#clip1170_1151)">
		<path id="Vector" d="M88 68.2C88 63.48 86.12 58.95 82.78 55.6C79.44 52.26 74.91 50.39 70.18 50.39C65.46 50.39 60.92 52.26 57.58 55.6C54.24 58.95 52.37 63.48 52.37 68.2C52.37 72.93 54.24 77.46 57.58 80.8C60.92 84.14 65.46 86.02 70.18 86.02C74.91 86.02 79.44 84.14 82.78 80.8C86.12 77.46 88 72.93 88 68.2ZM70.18 58.3C71.27 58.3 72.16 59.19 72.16 60.28L72.16 66.22L76.12 66.22C77.21 66.22 78.1 67.11 78.1 68.2C78.1 69.29 77.21 70.18 76.12 70.18L70.18 70.18C69.09 70.18 68.2 69.29 68.2 68.2L68.2 60.28C68.2 59.19 69.09 58.3 70.18 58.3Z" fill="#003448" fill-opacity="1.000000" fill-rule="nonzero"/>
		<path id="Subtract" d="M54.1113 24C54.6875 24 55.2656 24.1255 55.791 24.3638L79.416 34.3882C82.1758 35.5552 84.2344 38.2773 84.2207 41.5645C84.209 43.8071 84.0352 46.3843 83.6289 49.1641C81.3984 47.3696 78.8281 45.981 76.0293 45.1108C76.1289 43.9302 76.1816 42.8013 76.1914 41.7402L54.1113 32.3809L54.1113 49.6582C49.1934 53.8916 46.082 60.1616 46.082 67.1587C46.082 75.6567 50.6738 83.082 57.5117 87.0894C57.4824 87.1035 57.4531 87.1177 57.4219 87.1318C55.3281 88.1357 52.8945 88.1357 50.7988 87.1318C29.1816 76.7812 24.0625 54.0103 24 41.5645C23.9883 38.2773 26.0449 35.5552 28.8047 34.3882L52.4414 24.3638C52.957 24.1255 53.5332 24 54.1113 24Z" clip-rule="evenodd" fill="#003448" fill-opacity="1.000000" fill-rule="evenodd"/>
	</g>
</svg>
