<svg width="112.000000" height="112.000000" viewBox="0 0 112 112" fill="none" xmlns="http://www.w3.org/2000/svg" xmlns:xlink="http://www.w3.org/1999/xlink">
	<desc>
			Created with Pixso.
	</desc>
	<defs>
		<clipPath id="clip1170_1165">
			<rect id="warehouse-solid 1" rx="0.000000" width="63.000000" height="50.200001" transform="translate(24.500000 24.500000)" fill="white" fill-opacity="0"/>
		</clipPath>
		<clipPath id="clip1170_1164">
			<rect id="wallet-solid 1" rx="7.500000" width="111.000000" height="111.000000" transform="translate(0.500000 0.500000)" fill="white" fill-opacity="0"/>
		</clipPath>
	</defs>
	<rect id="wallet-solid 1" rx="7.500000" width="111.000000" height="111.000000" transform="translate(0.500000 0.500000)" fill="#5582A0" fill-opacity="0"/>
	<g clip-path="url(#clip1170_1164)">
		<rect id="warehouse-solid 1" rx="0.000000" width="63.000000" height="50.200001" transform="translate(24.500000 24.500000)" fill="#FFFFFF" fill-opacity="0"/>
		<g clip-path="url(#clip1170_1165)">
			<path id="Vector" d="M24 72.8L24 41.12C24 38.51 25.58 36.16 28.01 35.18L54.81 24.48C55.57 24.16 56.41 24.16 57.18 24.48L83.98 35.18C86.41 36.16 88 38.52 88 41.12L88 72.8C88 74.12 86.92 75.2 85.59 75.2L80.8 75.2C79.47 75.2 78.4 74.12 78.4 72.8L78.4 46.39C78.4 44.62 76.97 43.2 75.19 43.2L36.8 43.2C35.02 43.2 33.59 44.62 33.59 46.39L33.59 72.8C33.59 74.12 32.52 75.2 31.19 75.2L26.4 75.2C25.07 75.2 24 74.12 24 72.8ZM72.8 75.2L39.19 75.2C37.86 75.2 36.8 74.12 36.8 72.8L36.8 67.2L75.19 67.2L75.19 72.8C75.19 74.12 74.13 75.2 72.8 75.2ZM36.8 64L36.8 57.6L75.19 57.6L75.19 64L36.8 64ZM36.8 54.39L36.8 46.39L75.19 46.39L75.19 54.39L36.8 54.39Z" fill="#003448" fill-opacity="1.000000" fill-rule="nonzero"/>
		</g>
	</g>
</svg>
