<svg width="112.000000" height="112.000000" viewBox="0 0 112 112" fill="none" xmlns="http://www.w3.org/2000/svg" xmlns:xlink="http://www.w3.org/1999/xlink">
	<desc>
			Created with Pixso.
	</desc>
	<defs>
		<clipPath id="clip1170_1170">
			<rect id="arrow-down-up-lock-solid 1" rx="0.000000" width="63.000000" height="50.200001" transform="translate(24.500000 24.500000)" fill="white" fill-opacity="0"/>
		</clipPath>
		<clipPath id="clip1170_1169">
			<rect id="wallet-solid 1" rx="7.500000" width="111.000000" height="111.000000" transform="translate(0.500000 0.500000)" fill="white" fill-opacity="0"/>
		</clipPath>
	</defs>
	<rect id="wallet-solid 1" rx="7.500000" width="111.000000" height="111.000000" transform="translate(0.500000 0.500000)" fill="#5582A0" fill-opacity="0"/>
	<g clip-path="url(#clip1170_1169)">
		<rect id="arrow-down-up-lock-solid 1" rx="0.000000" width="63.000000" height="50.200001" transform="translate(24.500000 24.500000)" fill="#FFFFFF" fill-opacity="0"/>
		<g clip-path="url(#clip1170_1170)">
			<path id="Vector" d="M39.06 74.25L48.66 64.66C49.91 63.41 49.91 61.37 48.66 60.12C47.41 58.87 45.37 58.87 44.12 60.12L40 64.26L40 52.79L65.59 52.79L65.59 51.2C65.59 49.48 65.99 47.85 66.67 46.39L59.19 46.39L59.19 34.93L63.33 39.06C64.58 40.31 66.61 40.31 67.86 39.06C69.11 37.81 69.11 35.79 67.86 34.54L58.26 24.93C57.66 24.33 56.85 24 56 24C55.16 24 54.34 24.33 53.75 24.93L44.15 34.54C42.9 35.79 42.9 37.81 44.15 39.06C45.4 40.31 47.42 40.31 48.67 39.06L52.79 34.93L52.79 46.39L40 46.39L33.59 46.39L27.19 46.39C25.42 46.39 24 47.83 24 49.6C24 51.37 25.42 52.79 27.19 52.79L33.59 52.79L33.59 64.26L29.45 60.14C28.2 58.89 26.17 58.89 24.92 60.14C23.67 61.39 23.67 63.41 24.92 64.66L34.52 74.26C35.77 75.51 37.81 75.51 39.06 74.26L39.06 74.25ZM40 43.2L40 30.39C40 28.62 38.57 27.2 36.79 27.2C35.02 27.2 33.59 28.62 33.59 30.39L33.59 43.2L40 43.2ZM52.79 56L52.79 68.79C52.79 70.56 54.23 72 56 72C57.76 72 59.19 70.56 59.19 68.79L59.19 56L52.79 56ZM76.79 48C78.57 48 80 49.43 80 51.2L80 56L73.59 56L73.59 51.2C73.59 49.43 75.02 48 76.79 48ZM68.79 51.2L68.79 56C67.02 56 65.59 57.43 65.59 59.2L65.59 72C65.59 73.76 67.02 75.2 68.79 75.2L84.79 75.2C86.57 75.2 88 73.76 88 72L88 59.2C88 57.43 86.57 56 84.79 56L84.79 51.2C84.79 46.77 81.21 43.2 76.79 43.2C72.37 43.2 68.79 46.77 68.79 51.2Z" fill="#003448" fill-opacity="1.000000" fill-rule="nonzero"/>
		</g>
	</g>
</svg>
