<svg width="112.000000" height="112.000000" viewBox="0 0 112 112" fill="none" xmlns="http://www.w3.org/2000/svg" xmlns:xlink="http://www.w3.org/1999/xlink">
	<desc>
			Created with Pixso.
	</desc>
	<defs>
		<clipPath id="clip1170_1176">
			<rect id="wallet-solid 1" rx="0.000000" width="63.000000" height="63.000000" transform="translate(24.179688 18.100098)" fill="white" fill-opacity="0"/>
		</clipPath>
		<clipPath id="clip1170_1175">
			<rect id="arrow-down-up-lock-solid 1" rx="0.000000" width="63.000000" height="50.200001" transform="translate(24.500000 24.500000)" fill="white" fill-opacity="0"/>
		</clipPath>
		<clipPath id="clip1170_1174">
			<rect id="wallet-solid 2" rx="7.500000" width="111.000000" height="111.000000" transform="translate(0.500000 0.500000)" fill="white" fill-opacity="0"/>
		</clipPath>
	</defs>
	<rect id="wallet-solid 2" rx="7.500000" width="111.000000" height="111.000000" transform="translate(0.500000 0.500000)" fill="#5582A0" fill-opacity="0"/>
	<g clip-path="url(#clip1170_1174)">
		<rect id="arrow-down-up-lock-solid 1" rx="0.000000" width="63.000000" height="50.200001" transform="translate(24.500000 24.500000)" fill="#FFFFFF" fill-opacity="0"/>
		<g clip-path="url(#clip1170_1175)">
			<rect id="wallet-solid 1" rx="0.000000" width="63.000000" height="63.000000" transform="translate(24.179688 18.100098)" fill="#FFFFFF" fill-opacity="0"/>
			<g clip-path="url(#clip1170_1176)">
				<path id="Vector" d="M31.67 21.6C27.26 21.6 23.67 25.18 23.67 29.6L23.67 69.6C23.67 74.01 27.26 77.6 31.67 77.6L79.67 77.6C84.09 77.6 87.67 74.01 87.67 69.6L87.67 41.6C87.67 37.18 84.09 33.6 79.67 33.6L33.67 33.6C32.58 33.6 31.67 32.7 31.67 31.6C31.67 30.5 32.58 29.6 33.67 29.6L79.67 29.6C81.89 29.6 83.67 27.81 83.67 25.6C83.67 23.38 81.89 21.6 79.67 21.6L31.67 21.6ZM75.67 51.6C76.74 51.6 77.75 52.02 78.5 52.77C79.25 53.52 79.67 54.53 79.67 55.6C79.67 56.66 79.25 57.67 78.5 58.42C77.75 59.17 76.74 59.6 75.67 59.6C74.61 59.6 73.6 59.17 72.85 58.42C72.1 57.67 71.67 56.66 71.67 55.6C71.67 54.53 72.1 53.52 72.85 52.77C73.6 52.02 74.61 51.6 75.67 51.6Z" fill="#003448" fill-opacity="1.000000" fill-rule="nonzero"/>
			</g>
		</g>
	</g>
</svg>
