<svg width="112.000000" height="112.000000" viewBox="0 0 112 112" fill="none" xmlns="http://www.w3.org/2000/svg" xmlns:xlink="http://www.w3.org/1999/xlink">
	<desc>
			Created with Pixso.
	</desc>
	<defs/>
	<rect id="Frame 517" rx="7.500000" width="111.000000" height="111.000000" transform="translate(0.500000 0.500000)" fill="#5582A0" fill-opacity="0"/>
	<path id="Vector" d="M47.11 29.33C47.11 26.38 49.5 24 52.44 24L59.55 24C62.5 24 64.88 26.38 64.88 29.33L64.88 36.44C64.88 39.38 62.5 41.77 59.55 41.77L58.66 41.77L58.66 46.22L75.55 46.22C78.98 46.22 81.77 49.01 81.77 52.44L81.77 56L82.66 56C85.61 56 88 58.38 88 61.33L88 68.44C88 71.38 85.61 73.77 82.66 73.77L75.55 73.77C72.61 73.77 70.22 71.38 70.22 68.44L70.22 61.33C70.22 58.38 72.61 56 75.55 56L76.44 56L76.44 52.44C76.44 51.95 76.04 51.55 75.55 51.55L58.66 51.55L58.66 56L59.55 56C62.5 56 64.88 58.38 64.88 61.33L64.88 68.44C64.88 71.38 62.5 73.77 59.55 73.77L52.44 73.77C49.5 73.77 47.11 71.38 47.11 68.44L47.11 61.33C47.11 58.38 49.5 56 52.44 56L53.33 56L53.33 51.55L36.44 51.55C35.95 51.55 35.55 51.95 35.55 52.44L35.55 56L36.44 56C39.38 56 41.77 58.38 41.77 61.33L41.77 68.44C41.77 71.38 39.38 73.77 36.44 73.77L29.33 73.77C26.38 73.77 24 71.38 24 68.44L24 61.33C24 58.38 26.38 56 29.33 56L30.22 56L30.22 52.44C30.22 49.01 33.01 46.22 36.44 46.22L53.33 46.22L53.33 41.77L52.44 41.77C49.5 41.77 47.11 39.38 47.11 36.44L47.11 29.33Z" fill="#003448" fill-opacity="1.000000" fill-rule="nonzero"/>
</svg>
