<svg width="14.000000" height="14.000000" viewBox="0 0 14 14" fill="none" xmlns="http://www.w3.org/2000/svg" xmlns:xlink="http://www.w3.org/1999/xlink">
	<desc>
			Created with Pixso.
	</desc>
	<defs/>
	<path id="Vector" d="M12 0C13.1 0 14 0.89 14 2L14 12C14 13.1 13.1 14 12 14L2 14C0.89 14 0 13.1 0 12L0 2C0 0.89 0.89 0 2 0L12 0ZM5 3.5C4.58 3.5 4.25 3.83 4.25 4.25C4.25 4.66 4.58 5 5 5L7.94 5L3.71 9.21C3.42 9.51 3.42 9.98 3.71 10.27C4.01 10.56 4.48 10.57 4.77 10.27L8.99 6.05L9 9.25C9 9.66 9.33 10 9.75 10C10.16 10 10.5 9.66 10.5 9.25L10.5 4.25C10.5 3.83 10.16 3.5 9.75 3.5L5 3.5Z" fill="#5582A0" fill-opacity="1.000000" fill-rule="nonzero"/>
</svg>
