<svg width="24.000000" height="24.000000" viewBox="0 0 24 24" fill="none" xmlns="http://www.w3.org/2000/svg" xmlns:xlink="http://www.w3.org/1999/xlink">
	<desc>
			Created with Pixso.
	</desc>
	<defs/>
	<path id="Vector" d="M7.72 1.15C7.36 0.28 6.41 -0.19 5.5 0.06L1.38 1.19C0.56 1.41 0 2.15 0 3C0 14.59 9.4 24 21 24C21.84 24 22.58 23.43 22.8 22.61L23.93 18.49C24.18 17.58 23.71 16.63 22.84 16.27L18.34 14.39C17.58 14.07 16.69 14.29 16.17 14.93L14.28 17.25C10.98 15.68 8.31 13.01 6.75 9.71L9.06 7.82C9.7 7.3 9.92 6.42 9.6 5.65L7.72 1.15L7.72 1.15Z" fill="#FFFFFF" fill-opacity="1.000000" fill-rule="nonzero"/>
</svg>
