<svg width="16.000000" height="16.000000" viewBox="0 0 16 16" fill="none" xmlns="http://www.w3.org/2000/svg" xmlns:xlink="http://www.w3.org/1999/xlink">
	<desc>
			Created with Pixso.
	</desc>
	<defs/>
	<path id="Vector" d="M8 0C3.58 0 0 3.58 0 8C0 12.41 3.58 16 8 16C12.41 16 16 12.41 16 8C16 3.58 12.41 0 8 0ZM11.7 5.44C11.58 6.7 11.06 9.77 10.8 11.19C10.68 11.79 10.47 11.99 10.25 12.01C9.79 12.05 9.44 11.7 8.99 11.4C8.28 10.94 7.88 10.66 7.2 10.2C6.41 9.69 6.92 9.4 7.37 8.93C7.49 8.81 9.54 6.95 9.58 6.78C9.58 6.76 9.58 6.68 9.54 6.64C9.49 6.6 9.42 6.61 9.37 6.62C9.3 6.64 8.18 7.38 6 8.85C5.68 9.07 5.39 9.18 5.13 9.17C4.84 9.16 4.3 9.01 3.89 8.88C3.39 8.71 2.99 8.63 3.02 8.35C3.04 8.21 3.24 8.06 3.62 7.91C5.95 6.89 7.5 6.22 8.28 5.9C10.5 4.98 10.97 4.81 11.27 4.81C11.33 4.81 11.48 4.82 11.58 4.9C11.64 4.96 11.68 5.03 11.69 5.12C11.71 5.22 11.71 5.33 11.7 5.44Z" fill="#FFFFFF" fill-opacity="1.000000" fill-rule="nonzero"/>
</svg>
