<svg width="16.000000" height="15.515152" viewBox="0 0 16 15.5152" fill="none" xmlns="http://www.w3.org/2000/svg" xmlns:xlink="http://www.w3.org/1999/xlink">
	<desc>
			Created with Pixso.
	</desc>
	<defs/>
	<path id="Vector" d="M1.4 7.68C1.4 8.89 1.75 10.07 2.41 11.08L2.57 11.33L1.9 13.68L4.4 13.05L4.64 13.19C5.65 13.77 6.81 14.08 7.99 14.08L8 14.08C11.63 14.08 14.66 11.21 14.66 7.69C14.66 5.98 13.9 4.38 12.66 3.17C11.41 1.96 9.75 1.29 8 1.29C4.36 1.29 1.41 4.16 1.4 7.68ZM10.53 11.34C9.91 11.43 9.41 11.38 8.16 10.86C6.32 10.09 5.07 8.36 4.82 8.01C4.8 7.99 4.78 7.97 4.77 7.96C4.67 7.84 3.97 6.92 3.97 5.97C3.97 5.08 4.41 4.62 4.63 4.41C4.64 4.39 4.65 4.38 4.66 4.37C4.84 4.17 5.06 4.13 5.19 4.13C5.32 4.13 5.46 4.13 5.57 4.13C5.58 4.13 5.59 4.13 5.61 4.13C5.73 4.13 5.87 4.13 6.01 4.46C6.08 4.6 6.16 4.81 6.26 5.03C6.42 5.42 6.59 5.82 6.63 5.89C6.67 5.98 6.71 6.09 6.64 6.22C6.47 6.55 6.3 6.72 6.17 6.85C6.02 7.01 5.95 7.08 6.06 7.27C6.83 8.54 7.59 8.98 8.75 9.55C8.96 9.65 9.07 9.63 9.18 9.5C9.3 9.38 9.68 8.94 9.81 8.75C9.94 8.56 10.08 8.59 10.25 8.65C10.43 8.72 11.41 9.18 11.61 9.28C11.65 9.3 11.68 9.31 11.72 9.33C11.85 9.4 11.95 9.44 11.99 9.5C12.03 9.6 12.03 9.98 11.87 10.43C11.71 10.88 10.91 11.29 10.53 11.34ZM4.2 14.44L0 15.51L1.12 11.52C0.42 10.36 0.06 9.04 0.06 7.68C0.07 3.44 3.62 0 7.99 0C10.11 0 12.1 0.8 13.6 2.25C15.09 3.7 16 5.63 16 7.69C16 11.93 12.36 15.37 7.99 15.37C6.66 15.37 5.35 15.05 4.2 14.44Z" fill="#FFFFFF" fill-opacity="1.000000" fill-rule="nonzero"/>
</svg>
